<svg xmlns="http://www.w3.org/2000/svg" viewBox="0 0 1000 560" font-family="-apple-system, 'Segoe UI', Roboto, Helvetica, Arial, sans-serif">
<rect x="0" y="0" width="1000" height="560" rx="10" fill="#fdfcf8"/>
<rect x="0.5" y="0.5" width="999" height="559" rx="10" fill="none" stroke="#eae4d6"/>
<text x="28" y="40" font-size="13" fill="#8b7e6a" text-anchor="start" font-weight="700" letter-spacing="0.12em">THE OPENING HAS GOTTEN DARKER</text>
<text x="28" y="64" font-size="16" fill="#5c5145" text-anchor="start">Average opening and closing fortune by decade of publication · 10,617 books, 1900–2026</text>
<line x1="90" y1="437.4074074074074" x2="910" y2="437.4074074074074" stroke="#eae4d6" stroke-width="1"/>
<text x="78" y="442.4074074074074" font-size="13" fill="#8b7e6a" text-anchor="end">-20</text>
<line x1="90" y1="374.44444444444446" x2="910" y2="374.44444444444446" stroke="#eae4d6" stroke-width="1"/>
<text x="78" y="379.44444444444446" font-size="13" fill="#8b7e6a" text-anchor="end">-10</text>
<line x1="90" y1="248.5185185185185" x2="910" y2="248.5185185185185" stroke="#eae4d6" stroke-width="1"/>
<text x="78" y="253.5185185185185" font-size="13" fill="#8b7e6a" text-anchor="end">+10</text>
<line x1="90" y1="185.55555555555554" x2="910" y2="185.55555555555554" stroke="#eae4d6" stroke-width="1"/>
<text x="78" y="190.55555555555554" font-size="13" fill="#8b7e6a" text-anchor="end">+20</text>
<line x1="90" y1="122.5925925925926" x2="910" y2="122.5925925925926" stroke="#eae4d6" stroke-width="1"/>
<text x="78" y="127.5925925925926" font-size="13" fill="#8b7e6a" text-anchor="end">+30</text>
<line x1="90" y1="311.4814814814815" x2="910" y2="311.4814814814815" stroke="#c8bca6" stroke-width="1"/>
<text x="78" y="316.4814814814815" font-size="13" fill="#8b7e6a" text-anchor="end">0</text>
<path d="M90.0,210.7 L158.3,164.8 L226.7,208.9 L295.0,222.1 L363.3,191.9 L431.7,198.1 L500.0,225.2 L568.3,252.9 L636.7,203.2 L705.0,203.8 L773.3,183.7 L841.7,221.4 L910.0,206.3 L910.0,396.5 L841.7,388.9 L773.3,369.4 L705.0,367.5 L636.7,356.2 L568.3,349.9 L500.0,337.9 L431.7,351.8 L363.3,341.1 L295.0,320.9 L226.7,322.2 L158.3,313.4 L90.0,331.6 Z" fill="#8b7e6a" stroke="none" stroke-width="2" stroke-linejoin="round" stroke-linecap="round" opacity="0.07"/>
<path d="M90.0,210.7 L158.3,164.8 L226.7,208.9 L295.0,222.1 L363.3,191.9 L431.7,198.1 L500.0,225.2 L568.3,252.9 L636.7,203.2 L705.0,203.8 L773.3,183.7 L841.7,221.4 L910.0,206.3" fill="none" stroke="#2a78d6" stroke-width="2.5" stroke-linejoin="round" stroke-linecap="round"/>
<path d="M90.0,331.6 L158.3,313.4 L226.7,322.2 L295.0,320.9 L363.3,341.1 L431.7,351.8 L500.0,337.9 L568.3,349.9 L636.7,356.2 L705.0,367.5 L773.3,369.4 L841.7,388.9 L910.0,396.5" fill="none" stroke="#e34948" stroke-width="2.5" stroke-linejoin="round" stroke-linecap="round"/>
<circle cx="90.0" cy="210.74074074074076" r="5.6" fill="#fdfcf8"/>
<circle cx="90.0" cy="210.74074074074076" r="3.6" fill="#2a78d6"/>
<circle cx="90.0" cy="331.6296296296297" r="5.6" fill="#fdfcf8"/>
<circle cx="90.0" cy="331.6296296296297" r="3.6" fill="#e34948"/>
<circle cx="158.33333333333331" cy="164.77777777777777" r="5.6" fill="#fdfcf8"/>
<circle cx="158.33333333333331" cy="164.77777777777777" r="3.6" fill="#2a78d6"/>
<circle cx="158.33333333333331" cy="313.3703703703703" r="5.6" fill="#fdfcf8"/>
<circle cx="158.33333333333331" cy="313.3703703703703" r="3.6" fill="#e34948"/>
<circle cx="226.66666666666666" cy="208.85185185185185" r="5.6" fill="#fdfcf8"/>
<circle cx="226.66666666666666" cy="208.85185185185185" r="3.6" fill="#2a78d6"/>
<circle cx="226.66666666666666" cy="322.1851851851852" r="5.6" fill="#fdfcf8"/>
<circle cx="226.66666666666666" cy="322.1851851851852" r="3.6" fill="#e34948"/>
<circle cx="295.0" cy="222.07407407407408" r="5.6" fill="#fdfcf8"/>
<circle cx="295.0" cy="222.07407407407408" r="3.6" fill="#2a78d6"/>
<circle cx="295.0" cy="320.9259259259259" r="5.6" fill="#fdfcf8"/>
<circle cx="295.0" cy="320.9259259259259" r="3.6" fill="#e34948"/>
<circle cx="363.3333333333333" cy="191.85185185185185" r="5.6" fill="#fdfcf8"/>
<circle cx="363.3333333333333" cy="191.85185185185185" r="3.6" fill="#2a78d6"/>
<circle cx="363.3333333333333" cy="341.07407407407413" r="5.6" fill="#fdfcf8"/>
<circle cx="363.3333333333333" cy="341.07407407407413" r="3.6" fill="#e34948"/>
<circle cx="431.6666666666667" cy="198.14814814814815" r="5.6" fill="#fdfcf8"/>
<circle cx="431.6666666666667" cy="198.14814814814815" r="3.6" fill="#2a78d6"/>
<circle cx="431.6666666666667" cy="351.77777777777777" r="5.6" fill="#fdfcf8"/>
<circle cx="431.6666666666667" cy="351.77777777777777" r="3.6" fill="#e34948"/>
<circle cx="500.0" cy="225.22222222222223" r="5.6" fill="#fdfcf8"/>
<circle cx="500.0" cy="225.22222222222223" r="3.6" fill="#2a78d6"/>
<circle cx="500.0" cy="337.925925925926" r="5.6" fill="#fdfcf8"/>
<circle cx="500.0" cy="337.925925925926" r="3.6" fill="#e34948"/>
<circle cx="568.3333333333333" cy="252.92592592592592" r="5.6" fill="#fdfcf8"/>
<circle cx="568.3333333333333" cy="252.92592592592592" r="3.6" fill="#2a78d6"/>
<circle cx="568.3333333333333" cy="349.8888888888889" r="5.6" fill="#fdfcf8"/>
<circle cx="568.3333333333333" cy="349.8888888888889" r="3.6" fill="#e34948"/>
<circle cx="636.6666666666666" cy="203.1851851851852" r="5.6" fill="#fdfcf8"/>
<circle cx="636.6666666666666" cy="203.1851851851852" r="3.6" fill="#2a78d6"/>
<circle cx="636.6666666666666" cy="356.1851851851852" r="5.6" fill="#fdfcf8"/>
<circle cx="636.6666666666666" cy="356.1851851851852" r="3.6" fill="#e34948"/>
<circle cx="705.0" cy="203.81481481481478" r="5.6" fill="#fdfcf8"/>
<circle cx="705.0" cy="203.81481481481478" r="3.6" fill="#2a78d6"/>
<circle cx="705.0" cy="367.51851851851853" r="5.6" fill="#fdfcf8"/>
<circle cx="705.0" cy="367.51851851851853" r="3.6" fill="#e34948"/>
<circle cx="773.3333333333334" cy="183.66666666666666" r="5.6" fill="#fdfcf8"/>
<circle cx="773.3333333333334" cy="183.66666666666666" r="3.6" fill="#2a78d6"/>
<circle cx="773.3333333333334" cy="369.40740740740745" r="5.6" fill="#fdfcf8"/>
<circle cx="773.3333333333334" cy="369.40740740740745" r="3.6" fill="#e34948"/>
<circle cx="841.6666666666666" cy="221.44444444444446" r="5.6" fill="#fdfcf8"/>
<circle cx="841.6666666666666" cy="221.44444444444446" r="3.6" fill="#2a78d6"/>
<circle cx="841.6666666666666" cy="388.92592592592587" r="5.6" fill="#fdfcf8"/>
<circle cx="841.6666666666666" cy="388.92592592592587" r="3.6" fill="#e34948"/>
<circle cx="910.0" cy="206.33333333333331" r="5.6" fill="#fdfcf8"/>
<circle cx="910.0" cy="206.33333333333331" r="3.6" fill="#2a78d6"/>
<circle cx="910.0" cy="396.48148148148147" r="5.6" fill="#fdfcf8"/>
<circle cx="910.0" cy="396.48148148148147" r="3.6" fill="#e34948"/>
<text x="90.0" y="478" font-size="13" fill="#8b7e6a" text-anchor="middle">1900s</text>
<text x="226.66666666666666" y="478" font-size="13" fill="#8b7e6a" text-anchor="middle">1920s</text>
<text x="363.3333333333333" y="478" font-size="13" fill="#8b7e6a" text-anchor="middle">1940s</text>
<text x="500.0" y="478" font-size="13" fill="#8b7e6a" text-anchor="middle">1960s</text>
<text x="636.6666666666666" y="478" font-size="13" fill="#8b7e6a" text-anchor="middle">1980s</text>
<text x="773.3333333333334" y="478" font-size="13" fill="#8b7e6a" text-anchor="middle">2000s</text>
<text x="910.0" y="478" font-size="13" fill="#8b7e6a" text-anchor="middle">2020s</text>
<text x="98" y="96" font-size="13" fill="#2a78d6" text-anchor="start">●</text>
<text x="114" y="96" font-size="13.5" fill="#5c5145" text-anchor="start">closing fortune</text>
<text x="240" y="96" font-size="13" fill="#e34948" text-anchor="start">●</text>
<text x="256" y="96" font-size="13.5" fill="#5c5145" text-anchor="start">opening fortune</text>
<text x="924.0" y="211.33333333333331" font-size="14.5" fill="#2a2420" text-anchor="start" font-weight="700">+16.7</text>
<text x="924.0" y="401.48148148148147" font-size="14.5" fill="#2a2420" text-anchor="start" font-weight="700">−13.5</text>
<text x="86.0" y="355.6296296296297" font-size="14.5" fill="#2a2420" text-anchor="start" font-weight="700">−3.2</text>
<line x1="568.3333333333333" y1="359.8888888888889" x2="568.3333333333333" y2="242.92592592592592" stroke="#8b7e6a" stroke-width="1" stroke-dasharray="3 3"/>
<text x="568.3333333333333" y="399.6296296296296" font-size="13.5" fill="#2a2420" text-anchor="middle" font-weight="700">the 1970s: smallest net gain</text>
<text x="568.3333333333333" y="417.6296296296296" font-size="13.5" fill="#2a2420" text-anchor="middle" font-weight="700">of the century (+15.4)</text>
<line x1="568.3333333333333" y1="359.8888888888889" x2="568.3333333333333" y2="385.6296296296296" stroke="#8b7e6a" stroke-width="1" stroke-dasharray="3 3"/>
</svg>
