<svg xmlns="http://www.w3.org/2000/svg" viewBox="0 0 1000 720" font-family="-apple-system, 'Segoe UI', Roboto, Helvetica, Arial, sans-serif">
<rect x="0" y="0" width="1000" height="720" rx="10" fill="#fdfcf8"/>
<rect x="0.5" y="0.5" width="999" height="719" rx="10" fill="none" stroke="#eae4d6"/>
<text x="28" y="40" font-size="13" fill="#8b7e6a" text-anchor="start" font-weight="700" letter-spacing="0.12em">EVERY GENRE HAS A FINGERPRINT</text>
<text x="28" y="64" font-size="16" fill="#5c5145" text-anchor="start">Share of each genre landing in each shape family, minus the corpus baseline (percentage points)</text>
<text x="301.0" y="106" font-size="13.5" fill="#5c5145" text-anchor="middle" font-weight="700">Rags to</text>
<text x="301.0" y="123" font-size="13.5" fill="#5c5145" text-anchor="middle" font-weight="700">Riches</text>
<text x="403.0" y="106" font-size="13.5" fill="#5c5145" text-anchor="middle" font-weight="700">Man in</text>
<text x="403.0" y="123" font-size="13.5" fill="#5c5145" text-anchor="middle" font-weight="700">a Hole</text>
<text x="505.0" y="106" font-size="13.5" fill="#5c5145" text-anchor="middle" font-weight="700">Deep</text>
<text x="505.0" y="123" font-size="13.5" fill="#5c5145" text-anchor="middle" font-weight="700">Hole</text>
<text x="607.0" y="106" font-size="13.5" fill="#5c5145" text-anchor="middle" font-weight="700">Cinderella</text>
<text x="709.0" y="106" font-size="13.5" fill="#5c5145" text-anchor="middle" font-weight="700">Icarus</text>
<text x="709.0" y="123" font-size="13.5" fill="#5c5145" text-anchor="middle" font-weight="700">(recovers)</text>
<text x="811.0" y="106" font-size="13.5" fill="#5c5145" text-anchor="middle" font-weight="700">Icarus</text>
<text x="811.0" y="123" font-size="13.5" fill="#5c5145" text-anchor="middle" font-weight="700">(doesn’t)</text>
<text x="913.0" y="106" font-size="13.5" fill="#5c5145" text-anchor="middle" font-weight="700">The</text>
<text x="913.0" y="123" font-size="13.5" fill="#5c5145" text-anchor="middle" font-weight="700">Downfall</text>
<text x="236" y="161.0" font-size="14.5" fill="#2a2420" text-anchor="end">fantasy</text>
<text x="236" y="177.0" font-size="11.5" fill="#8b7e6a" text-anchor="end">n=1,557</text>
<rect x="251" y="141" width="100" height="38" rx="3" fill="#f1ede2"/>
<text x="301.0" y="165.0" font-size="13.5" fill="#2a2420" text-anchor="middle">·</text>
<rect x="353" y="141" width="100" height="38" rx="3" fill="#accaeb"/>
<text x="403.0" y="165.0" font-size="13.5" fill="#2a2420" text-anchor="middle">+5</text>
<rect x="455" y="141" width="100" height="38" rx="3" fill="#f1ede2"/>
<text x="505.0" y="165.0" font-size="13.5" fill="#2a2420" text-anchor="middle">·</text>
<rect x="557" y="141" width="100" height="38" rx="3" fill="#ccddf0"/>
<text x="607.0" y="165.0" font-size="13.5" fill="#2a2420" text-anchor="middle">+2</text>
<rect x="659" y="141" width="100" height="38" rx="3" fill="#f1ede2"/>
<text x="709.0" y="165.0" font-size="13.5" fill="#2a2420" text-anchor="middle">·</text>
<rect x="761" y="141" width="100" height="38" rx="3" fill="#f6c9c6"/>
<text x="811.0" y="165.0" font-size="13.5" fill="#2a2420" text-anchor="middle">-3</text>
<rect x="863" y="141" width="100" height="38" rx="3" fill="#f3b5b2"/>
<text x="913.0" y="165.0" font-size="13.5" fill="#2a2420" text-anchor="middle">-5</text>
<text x="236" y="201.0" font-size="14.5" fill="#2a2420" text-anchor="end">science fiction</text>
<text x="236" y="217.0" font-size="11.5" fill="#8b7e6a" text-anchor="end">n=1,422</text>
<rect x="251" y="181" width="100" height="38" rx="3" fill="#f1ede2"/>
<text x="301.0" y="205.0" font-size="13.5" fill="#2a2420" text-anchor="middle">·</text>
<rect x="353" y="181" width="100" height="38" rx="3" fill="#ccddf0"/>
<text x="403.0" y="205.0" font-size="13.5" fill="#2a2420" text-anchor="middle">+2</text>
<rect x="455" y="181" width="100" height="38" rx="3" fill="#f1ede2"/>
<text x="505.0" y="205.0" font-size="13.5" fill="#2a2420" text-anchor="middle">·</text>
<rect x="557" y="181" width="100" height="38" rx="3" fill="#f1ede2"/>
<text x="607.0" y="205.0" font-size="13.5" fill="#2a2420" text-anchor="middle">·</text>
<rect x="659" y="181" width="100" height="38" rx="3" fill="#f1ede2"/>
<text x="709.0" y="205.0" font-size="13.5" fill="#2a2420" text-anchor="middle">·</text>
<rect x="761" y="181" width="100" height="38" rx="3" fill="#f1ede2"/>
<text x="811.0" y="205.0" font-size="13.5" fill="#2a2420" text-anchor="middle">·</text>
<rect x="863" y="181" width="100" height="38" rx="3" fill="#f1ede2"/>
<text x="913.0" y="205.0" font-size="13.5" fill="#2a2420" text-anchor="middle">·</text>
<text x="236" y="241.0" font-size="14.5" fill="#2a2420" text-anchor="end">historical fiction</text>
<text x="236" y="257.0" font-size="11.5" fill="#8b7e6a" text-anchor="end">n=626</text>
<rect x="251" y="221" width="100" height="38" rx="3" fill="#f1ede2"/>
<text x="301.0" y="245.0" font-size="13.5" fill="#2a2420" text-anchor="middle">·</text>
<rect x="353" y="221" width="100" height="38" rx="3" fill="#f1ede2"/>
<text x="403.0" y="245.0" font-size="13.5" fill="#2a2420" text-anchor="middle">·</text>
<rect x="455" y="221" width="100" height="38" rx="3" fill="#f4bdba"/>
<text x="505.0" y="245.0" font-size="13.5" fill="#2a2420" text-anchor="middle">-4</text>
<rect x="557" y="221" width="100" height="38" rx="3" fill="#f1ede2"/>
<text x="607.0" y="245.0" font-size="13.5" fill="#2a2420" text-anchor="middle">·</text>
<rect x="659" y="221" width="100" height="38" rx="3" fill="#9ec1e9"/>
<text x="709.0" y="245.0" font-size="13.5" fill="#2a2420" text-anchor="middle">+6</text>
<rect x="761" y="221" width="100" height="38" rx="3" fill="#f1ede2"/>
<text x="811.0" y="245.0" font-size="13.5" fill="#2a2420" text-anchor="middle">·</text>
<rect x="863" y="221" width="100" height="38" rx="3" fill="#f7d1ce"/>
<text x="913.0" y="245.0" font-size="13.5" fill="#2a2420" text-anchor="middle">-2</text>
<text x="236" y="281.0" font-size="14.5" fill="#2a2420" text-anchor="end">thriller</text>
<text x="236" y="297.0" font-size="11.5" fill="#8b7e6a" text-anchor="end">n=437</text>
<rect x="251" y="261" width="100" height="38" rx="3" fill="#f3bab7"/>
<text x="301.0" y="285.0" font-size="13.5" fill="#2a2420" text-anchor="middle">-4</text>
<rect x="353" y="261" width="100" height="38" rx="3" fill="#f1ede2"/>
<text x="403.0" y="285.0" font-size="13.5" fill="#2a2420" text-anchor="middle">·</text>
<rect x="455" y="261" width="100" height="38" rx="3" fill="#88b3e5"/>
<text x="505.0" y="285.0" font-size="13.5" fill="#2a2420" text-anchor="middle" font-weight="700">+9</text>
<rect x="557" y="261" width="100" height="38" rx="3" fill="#f1ede2"/>
<text x="607.0" y="285.0" font-size="13.5" fill="#2a2420" text-anchor="middle">·</text>
<rect x="659" y="261" width="100" height="38" rx="3" fill="#f6cac7"/>
<text x="709.0" y="285.0" font-size="13.5" fill="#2a2420" text-anchor="middle">-2</text>
<rect x="761" y="261" width="100" height="38" rx="3" fill="#f7d3d0"/>
<text x="811.0" y="285.0" font-size="13.5" fill="#2a2420" text-anchor="middle">-2</text>
<rect x="863" y="261" width="100" height="38" rx="3" fill="#f1ede2"/>
<text x="913.0" y="285.0" font-size="13.5" fill="#2a2420" text-anchor="middle">·</text>
<text x="236" y="321.0" font-size="14.5" fill="#2a2420" text-anchor="end">mystery fiction</text>
<text x="236" y="337.0" font-size="11.5" fill="#8b7e6a" text-anchor="end">n=413</text>
<rect x="251" y="301" width="100" height="38" rx="3" fill="#f1ede2"/>
<text x="301.0" y="325.0" font-size="13.5" fill="#2a2420" text-anchor="middle">·</text>
<rect x="353" y="301" width="100" height="38" rx="3" fill="#f4bdba"/>
<text x="403.0" y="325.0" font-size="13.5" fill="#2a2420" text-anchor="middle">-4</text>
<rect x="455" y="301" width="100" height="38" rx="3" fill="#659ddf"/>
<text x="505.0" y="325.0" font-size="13.5" fill="#2a2420" text-anchor="middle" font-weight="700">+13</text>
<rect x="557" y="301" width="100" height="38" rx="3" fill="#aac8eb"/>
<text x="607.0" y="325.0" font-size="13.5" fill="#2a2420" text-anchor="middle">+5</text>
<rect x="659" y="301" width="100" height="38" rx="3" fill="#f4bdba"/>
<text x="709.0" y="325.0" font-size="13.5" fill="#2a2420" text-anchor="middle">-4</text>
<rect x="761" y="301" width="100" height="38" rx="3" fill="#f4bcb9"/>
<text x="811.0" y="325.0" font-size="13.5" fill="#2a2420" text-anchor="middle">-4</text>
<rect x="863" y="301" width="100" height="38" rx="3" fill="#f3b4b2"/>
<text x="913.0" y="325.0" font-size="13.5" fill="#2a2420" text-anchor="middle">-5</text>
<text x="236" y="361.0" font-size="14.5" fill="#2a2420" text-anchor="end">crime fiction</text>
<text x="236" y="377.0" font-size="11.5" fill="#8b7e6a" text-anchor="end">n=393</text>
<rect x="251" y="341" width="100" height="38" rx="3" fill="#ccddf0"/>
<text x="301.0" y="365.0" font-size="13.5" fill="#2a2420" text-anchor="middle">+2</text>
<rect x="353" y="341" width="100" height="38" rx="3" fill="#f1ede2"/>
<text x="403.0" y="365.0" font-size="13.5" fill="#2a2420" text-anchor="middle">·</text>
<rect x="455" y="341" width="100" height="38" rx="3" fill="#c3d8ef"/>
<text x="505.0" y="365.0" font-size="13.5" fill="#2a2420" text-anchor="middle">+2</text>
<rect x="557" y="341" width="100" height="38" rx="3" fill="#c8dbf0"/>
<text x="607.0" y="365.0" font-size="13.5" fill="#2a2420" text-anchor="middle">+2</text>
<rect x="659" y="341" width="100" height="38" rx="3" fill="#f5c3c0"/>
<text x="709.0" y="365.0" font-size="13.5" fill="#2a2420" text-anchor="middle">-3</text>
<rect x="761" y="341" width="100" height="38" rx="3" fill="#f6ccc8"/>
<text x="811.0" y="365.0" font-size="13.5" fill="#2a2420" text-anchor="middle">-2</text>
<rect x="863" y="341" width="100" height="38" rx="3" fill="#f1ede2"/>
<text x="913.0" y="365.0" font-size="13.5" fill="#2a2420" text-anchor="middle">·</text>
<text x="236" y="401.0" font-size="14.5" fill="#2a2420" text-anchor="end">horror fiction</text>
<text x="236" y="417.0" font-size="11.5" fill="#8b7e6a" text-anchor="end">n=381</text>
<rect x="251" y="381" width="100" height="38" rx="3" fill="#ef9c9a"/>
<text x="301.0" y="405.0" font-size="13.5" fill="#2a2420" text-anchor="middle" font-weight="700">-8</text>
<rect x="353" y="381" width="100" height="38" rx="3" fill="#ef9e9c"/>
<text x="403.0" y="405.0" font-size="13.5" fill="#2a2420" text-anchor="middle">-8</text>
<rect x="455" y="381" width="100" height="38" rx="3" fill="#8db6e6"/>
<text x="505.0" y="405.0" font-size="13.5" fill="#2a2420" text-anchor="middle" font-weight="700">+8</text>
<rect x="557" y="381" width="100" height="38" rx="3" fill="#ee9391"/>
<text x="607.0" y="405.0" font-size="13.5" fill="#2a2420" text-anchor="middle" font-weight="700">-9</text>
<rect x="659" y="381" width="100" height="38" rx="3" fill="#f4bebb"/>
<text x="709.0" y="405.0" font-size="13.5" fill="#2a2420" text-anchor="middle">-4</text>
<rect x="761" y="381" width="100" height="38" rx="3" fill="#bad2ed"/>
<text x="811.0" y="405.0" font-size="13.5" fill="#2a2420" text-anchor="middle">+3</text>
<rect x="863" y="381" width="100" height="38" rx="3" fill="#4086da"/>
<text x="913.0" y="405.0" font-size="13.5" fill="#ffffff" text-anchor="middle" font-weight="700">+18</text>
<text x="236" y="441.0" font-size="14.5" fill="#2a2420" text-anchor="end">children&#x27;s fiction</text>
<text x="236" y="457.0" font-size="11.5" fill="#8b7e6a" text-anchor="end">n=296</text>
<rect x="251" y="421" width="100" height="38" rx="3" fill="#f1ede2"/>
<text x="301.0" y="445.0" font-size="13.5" fill="#2a2420" text-anchor="middle">·</text>
<rect x="353" y="421" width="100" height="38" rx="3" fill="#9ec0e9"/>
<text x="403.0" y="445.0" font-size="13.5" fill="#2a2420" text-anchor="middle">+6</text>
<rect x="455" y="421" width="100" height="38" rx="3" fill="#f1ede2"/>
<text x="505.0" y="445.0" font-size="13.5" fill="#2a2420" text-anchor="middle">·</text>
<rect x="557" y="421" width="100" height="38" rx="3" fill="#81aee4"/>
<text x="607.0" y="445.0" font-size="13.5" fill="#2a2420" text-anchor="middle" font-weight="700">+10</text>
<rect x="659" y="421" width="100" height="38" rx="3" fill="#f6cdca"/>
<text x="709.0" y="445.0" font-size="13.5" fill="#2a2420" text-anchor="middle">-2</text>
<rect x="761" y="421" width="100" height="38" rx="3" fill="#f1aca9"/>
<text x="811.0" y="445.0" font-size="13.5" fill="#2a2420" text-anchor="middle">-6</text>
<rect x="863" y="421" width="100" height="38" rx="3" fill="#f1a7a5"/>
<text x="913.0" y="445.0" font-size="13.5" fill="#2a2420" text-anchor="middle">-7</text>
<text x="236" y="481.0" font-size="14.5" fill="#2a2420" text-anchor="end">crime literature</text>
<text x="236" y="497.0" font-size="11.5" fill="#8b7e6a" text-anchor="end">n=278</text>
<rect x="251" y="461" width="100" height="38" rx="3" fill="#f1ede2"/>
<text x="301.0" y="485.0" font-size="13.5" fill="#2a2420" text-anchor="middle">·</text>
<rect x="353" y="461" width="100" height="38" rx="3" fill="#f7d1ce"/>
<text x="403.0" y="485.0" font-size="13.5" fill="#2a2420" text-anchor="middle">-2</text>
<rect x="455" y="461" width="100" height="38" rx="3" fill="#a1c3e9"/>
<text x="505.0" y="485.0" font-size="13.5" fill="#2a2420" text-anchor="middle">+6</text>
<rect x="557" y="461" width="100" height="38" rx="3" fill="#afcbeb"/>
<text x="607.0" y="485.0" font-size="13.5" fill="#2a2420" text-anchor="middle">+4</text>
<rect x="659" y="461" width="100" height="38" rx="3" fill="#f2afac"/>
<text x="709.0" y="485.0" font-size="13.5" fill="#2a2420" text-anchor="middle">-6</text>
<rect x="761" y="461" width="100" height="38" rx="3" fill="#f5c2bf"/>
<text x="811.0" y="485.0" font-size="13.5" fill="#2a2420" text-anchor="middle">-3</text>
<rect x="863" y="461" width="100" height="38" rx="3" fill="#ccddf0"/>
<text x="913.0" y="485.0" font-size="13.5" fill="#2a2420" text-anchor="middle">+2</text>
<text x="236" y="521.0" font-size="14.5" fill="#2a2420" text-anchor="end">young adult fiction</text>
<text x="236" y="537.0" font-size="11.5" fill="#8b7e6a" text-anchor="end">n=264</text>
<rect x="251" y="501" width="100" height="38" rx="3" fill="#f2afac"/>
<text x="301.0" y="525.0" font-size="13.5" fill="#2a2420" text-anchor="middle">-6</text>
<rect x="353" y="501" width="100" height="38" rx="3" fill="#f1ede2"/>
<text x="403.0" y="525.0" font-size="13.5" fill="#2a2420" text-anchor="middle">·</text>
<rect x="455" y="501" width="100" height="38" rx="3" fill="#c8dbf0"/>
<text x="505.0" y="525.0" font-size="13.5" fill="#2a2420" text-anchor="middle">+2</text>
<rect x="557" y="501" width="100" height="38" rx="3" fill="#f7d0cd"/>
<text x="607.0" y="525.0" font-size="13.5" fill="#2a2420" text-anchor="middle">-2</text>
<rect x="659" y="501" width="100" height="38" rx="3" fill="#f1ede2"/>
<text x="709.0" y="525.0" font-size="13.5" fill="#2a2420" text-anchor="middle">·</text>
<rect x="761" y="501" width="100" height="38" rx="3" fill="#c8dbf0"/>
<text x="811.0" y="525.0" font-size="13.5" fill="#2a2420" text-anchor="middle">+2</text>
<rect x="863" y="501" width="100" height="38" rx="3" fill="#c1d6ee"/>
<text x="913.0" y="525.0" font-size="13.5" fill="#2a2420" text-anchor="middle">+3</text>
<text x="236" y="561.0" font-size="14.5" fill="#2a2420" text-anchor="end">adventure fiction</text>
<text x="236" y="577.0" font-size="11.5" fill="#8b7e6a" text-anchor="end">n=252</text>
<rect x="251" y="541" width="100" height="38" rx="3" fill="#f1ede2"/>
<text x="301.0" y="565.0" font-size="13.5" fill="#2a2420" text-anchor="middle">·</text>
<rect x="353" y="541" width="100" height="38" rx="3" fill="#a9c7ea"/>
<text x="403.0" y="565.0" font-size="13.5" fill="#2a2420" text-anchor="middle">+5</text>
<rect x="455" y="541" width="100" height="38" rx="3" fill="#f1ede2"/>
<text x="505.0" y="565.0" font-size="13.5" fill="#2a2420" text-anchor="middle">·</text>
<rect x="557" y="541" width="100" height="38" rx="3" fill="#bdd4ee"/>
<text x="607.0" y="565.0" font-size="13.5" fill="#2a2420" text-anchor="middle">+3</text>
<rect x="659" y="541" width="100" height="38" rx="3" fill="#f1ede2"/>
<text x="709.0" y="565.0" font-size="13.5" fill="#2a2420" text-anchor="middle">·</text>
<rect x="761" y="541" width="100" height="38" rx="3" fill="#f4bebb"/>
<text x="811.0" y="565.0" font-size="13.5" fill="#2a2420" text-anchor="middle">-4</text>
<rect x="863" y="541" width="100" height="38" rx="3" fill="#f3b4b2"/>
<text x="913.0" y="565.0" font-size="13.5" fill="#2a2420" text-anchor="middle">-5</text>
<text x="236" y="601.0" font-size="14.5" fill="#2a2420" text-anchor="end">detective fiction</text>
<text x="236" y="617.0" font-size="11.5" fill="#8b7e6a" text-anchor="end">n=238</text>
<rect x="251" y="581" width="100" height="38" rx="3" fill="#9cbfe8"/>
<text x="301.0" y="605.0" font-size="13.5" fill="#2a2420" text-anchor="middle">+6</text>
<rect x="353" y="581" width="100" height="38" rx="3" fill="#c6daef"/>
<text x="403.0" y="605.0" font-size="13.5" fill="#2a2420" text-anchor="middle">+2</text>
<rect x="455" y="581" width="100" height="38" rx="3" fill="#f1ede2"/>
<text x="505.0" y="605.0" font-size="13.5" fill="#2a2420" text-anchor="middle">·</text>
<rect x="557" y="581" width="100" height="38" rx="3" fill="#7aaae3"/>
<text x="607.0" y="605.0" font-size="13.5" fill="#2a2420" text-anchor="middle" font-weight="700">+10</text>
<rect x="659" y="581" width="100" height="38" rx="3" fill="#ef9997"/>
<text x="709.0" y="605.0" font-size="13.5" fill="#2a2420" text-anchor="middle" font-weight="700">-9</text>
<rect x="761" y="581" width="100" height="38" rx="3" fill="#f3b7b4"/>
<text x="811.0" y="605.0" font-size="13.5" fill="#2a2420" text-anchor="middle">-5</text>
<rect x="863" y="581" width="100" height="38" rx="3" fill="#f2b0ae"/>
<text x="913.0" y="605.0" font-size="13.5" fill="#2a2420" text-anchor="middle">-6</text>
<text x="250" y="656" font-size="13" fill="#8b7e6a" text-anchor="start">reads:</text>
<rect x="306" y="642" width="44" height="18" rx="3" fill="#e65b5a"/>
<text x="328" y="676" font-size="12" fill="#8b7e6a" text-anchor="middle">-18</text>
<rect x="352" y="642" width="44" height="18" rx="3" fill="#ed8f8d"/>
<text x="374" y="676" font-size="12" fill="#8b7e6a" text-anchor="middle">-10</text>
<rect x="398" y="642" width="44" height="18" rx="3" fill="#f4bdba"/>
<text x="420" y="676" font-size="12" fill="#8b7e6a" text-anchor="middle">-4</text>
<rect x="444" y="642" width="44" height="18" rx="3" fill="#f1ede2"/>
<text x="466" y="676" font-size="12" fill="#8b7e6a" text-anchor="middle">0</text>
<rect x="490" y="642" width="44" height="18" rx="3" fill="#b2cdec"/>
<text x="512" y="676" font-size="12" fill="#8b7e6a" text-anchor="middle">+4</text>
<rect x="536" y="642" width="44" height="18" rx="3" fill="#7dace3"/>
<text x="558" y="676" font-size="12" fill="#8b7e6a" text-anchor="middle">+10</text>
<rect x="582" y="642" width="44" height="18" rx="3" fill="#3f85d9"/>
<text x="604" y="676" font-size="12" fill="#8b7e6a" text-anchor="middle">+18</text>
<text x="644" y="656" font-size="13" fill="#8b7e6a" text-anchor="start">pp vs. baseline: blue = over-represented, red = under</text>
<text x="28" y="704" font-size="12.5" fill="#8b7e6a" text-anchor="start">Genres are Wikidata tags, ranked by how many charted books carry them; a book can carry several.</text>
</svg>
