<svg xmlns="http://www.w3.org/2000/svg" viewBox="0 0 1500 400" font-family="-apple-system, 'Segoe UI', Roboto, Helvetica, Arial, sans-serif">
<rect x="0" y="0" width="1500" height="400" rx="10" fill="#fdfcf8"/>
<rect x="0.5" y="0.5" width="1499" height="399" rx="10" fill="none" stroke="#eae4d6"/>
<text x="750" y="52" font-size="30" fill="#2a2420" text-anchor="middle" font-style="italic" font-family="Georgia, 'Times New Roman', serif">The Seven Shapes of (Charted) Stories</text>
<text x="750" y="80" font-size="16" fill="#8b7e6a" text-anchor="middle">11,027 fortune arcs, clustered by nothing but their geometry</text>
<rect x="26" y="116" width="190" height="234" rx="8" fill="#fdfcf8" stroke="#eae4d6" stroke-width="1"/>
<path d="M38.0,207.0 L43.4,206.0 L48.7,204.6 L54.1,203.2 L59.4,201.0 L61.6,200.0 L61.6,200.0 L38.0,200.0 Z" fill="#e34948" stroke="none" stroke-width="2" stroke-linejoin="round" stroke-linecap="round" opacity="0.13"/>
<path d="M61.6,200.0 L64.8,198.5 L70.1,196.5 L75.5,194.6 L80.8,192.7 L86.2,190.7 L91.5,188.1 L96.9,186.0 L102.3,184.2 L107.6,182.3 L113.0,179.8 L118.3,177.7 L123.7,175.9 L129.0,174.2 L134.4,172.4 L139.7,171.0 L145.1,169.0 L150.5,166.9 L155.8,165.3 L161.2,163.4 L166.5,161.1 L171.9,158.4 L177.2,154.6 L182.6,150.9 L187.9,148.1 L193.3,145.7 L198.6,143.7 L204.0,143.2 L204.0,200.0 L61.6,200.0 Z" fill="#2a78d6" stroke="none" stroke-width="2" stroke-linejoin="round" stroke-linecap="round" opacity="0.13"/>
<line x1="38" y1="200.0" x2="204" y2="200.0" stroke="#c8bca6" stroke-width="1"/>
<path d="M38.0,207.0 L43.4,206.0 L48.7,204.6 L54.1,203.2 L59.4,201.0 L64.8,198.5 L70.1,196.5 L75.5,194.6 L80.8,192.7 L86.2,190.7 L91.5,188.1 L96.9,186.0 L102.3,184.2 L107.6,182.3 L113.0,179.8 L118.3,177.7 L123.7,175.9 L129.0,174.2 L134.4,172.4 L139.7,171.0 L145.1,169.0 L150.5,166.9 L155.8,165.3 L161.2,163.4 L166.5,161.1 L171.9,158.4 L177.2,154.6 L182.6,150.9 L187.9,148.1 L193.3,145.7 L198.6,143.7 L204.0,143.2" fill="none" stroke="#2a2420" stroke-width="2.4" stroke-linejoin="round" stroke-linecap="round"/>
<text x="121.0" y="308" font-size="15" fill="#2a2420" text-anchor="middle" font-style="italic" font-family="Georgia, 'Times New Roman', serif">Rags to Riches</text>
<text x="121.0" y="330" font-size="12.5" fill="#8b7e6a" text-anchor="middle">12.1% of everything</text>
<rect x="234" y="116" width="190" height="234" rx="8" fill="#fdfcf8" stroke="#eae4d6" stroke-width="1"/>
<path d="M246.0,213.8 L251.4,213.6 L256.7,213.5 L262.1,217.9 L267.4,222.3 L272.8,225.6 L278.1,228.5 L283.5,230.1 L288.8,231.5 L294.2,232.9 L299.5,233.1 L304.9,232.5 L310.3,231.7 L315.6,230.5 L321.0,228.4 L326.3,225.2 L331.7,222.2 L337.0,217.2 L342.4,212.3 L347.7,206.7 L353.1,200.9 L354.0,200.0 L354.0,200.0 L246.0,200.0 Z" fill="#e34948" stroke="none" stroke-width="2" stroke-linejoin="round" stroke-linecap="round" opacity="0.13"/>
<path d="M354.0,200.0 L358.5,195.4 L363.8,189.2 L369.2,183.9 L374.5,178.9 L379.9,173.0 L385.2,168.2 L390.6,163.8 L395.9,160.3 L401.3,157.1 L406.6,153.0 L412.0,149.5 L412.0,200.0 L354.0,200.0 Z" fill="#2a78d6" stroke="none" stroke-width="2" stroke-linejoin="round" stroke-linecap="round" opacity="0.13"/>
<line x1="246" y1="200.0" x2="412" y2="200.0" stroke="#c8bca6" stroke-width="1"/>
<path d="M246.0,213.8 L251.4,213.6 L256.7,213.5 L262.1,217.9 L267.4,222.3 L272.8,225.6 L278.1,228.5 L283.5,230.1 L288.8,231.5 L294.2,232.9 L299.5,233.1 L304.9,232.5 L310.3,231.7 L315.6,230.5 L321.0,228.4 L326.3,225.2 L331.7,222.2 L337.0,217.2 L342.4,212.3 L347.7,206.7 L353.1,200.9 L358.5,195.4 L363.8,189.2 L369.2,183.9 L374.5,178.9 L379.9,173.0 L385.2,168.2 L390.6,163.8 L395.9,160.3 L401.3,157.1 L406.6,153.0 L412.0,149.5" fill="none" stroke="#2a2420" stroke-width="2.4" stroke-linejoin="round" stroke-linecap="round"/>
<text x="329.0" y="308" font-size="15" fill="#2a2420" text-anchor="middle" font-style="italic" font-family="Georgia, 'Times New Roman', serif">Man in a Hole</text>
<text x="329.0" y="330" font-size="12.5" fill="#8b7e6a" text-anchor="middle">16.8% of everything</text>
<rect x="442" y="116" width="190" height="234" rx="8" fill="#fdfcf8" stroke="#eae4d6" stroke-width="1"/>
<path d="M454.0,209.5 L459.4,209.5 L464.7,210.2 L470.1,215.0 L475.4,219.0 L480.8,221.7 L486.1,224.5 L491.5,226.8 L496.8,229.4 L502.2,232.0 L507.5,234.6 L512.9,236.6 L518.3,238.3 L523.6,240.2 L529.0,241.5 L534.3,243.5 L539.7,243.8 L545.0,245.2 L550.4,244.8 L555.7,244.1 L561.1,243.4 L566.5,241.8 L571.8,239.6 L577.2,236.5 L582.5,232.1 L587.9,226.3 L593.2,218.0 L598.6,208.1 L602.9,200.0 L602.9,200.0 L454.0,200.0 Z" fill="#e34948" stroke="none" stroke-width="2" stroke-linejoin="round" stroke-linecap="round" opacity="0.13"/>
<path d="M602.9,200.0 L603.9,198.0 L609.3,191.8 L614.6,182.8 L620.0,175.2 L620.0,200.0 L602.9,200.0 Z" fill="#2a78d6" stroke="none" stroke-width="2" stroke-linejoin="round" stroke-linecap="round" opacity="0.13"/>
<line x1="454" y1="200.0" x2="620" y2="200.0" stroke="#c8bca6" stroke-width="1"/>
<path d="M454.0,209.5 L459.4,209.5 L464.7,210.2 L470.1,215.0 L475.4,219.0 L480.8,221.7 L486.1,224.5 L491.5,226.8 L496.8,229.4 L502.2,232.0 L507.5,234.6 L512.9,236.6 L518.3,238.3 L523.6,240.2 L529.0,241.5 L534.3,243.5 L539.7,243.8 L545.0,245.2 L550.4,244.8 L555.7,244.1 L561.1,243.4 L566.5,241.8 L571.8,239.6 L577.2,236.5 L582.5,232.1 L587.9,226.3 L593.2,218.0 L598.6,208.1 L603.9,198.0 L609.3,191.8 L614.6,182.8 L620.0,175.2" fill="none" stroke="#2a2420" stroke-width="2.4" stroke-linejoin="round" stroke-linecap="round"/>
<text x="537.0" y="308" font-size="15" fill="#2a2420" text-anchor="middle" font-style="italic" font-family="Georgia, 'Times New Roman', serif">Man in a Deep Hole</text>
<text x="537.0" y="330" font-size="12.5" fill="#8b7e6a" text-anchor="middle">19.7% of everything</text>
<rect x="650" y="116" width="190" height="234" rx="8" fill="#fdfcf8" stroke="#eae4d6" stroke-width="1"/>
<path d="M662.0,198.5 L667.4,197.5 L672.7,195.8 L678.1,193.9 L683.4,191.6 L688.8,189.6 L694.1,188.6 L699.5,187.8 L704.8,187.4 L710.2,188.1 L715.5,190.2 L720.9,193.0 L726.3,196.3 L730.8,200.0 L730.8,200.0 L662.0,200.0 Z" fill="#2a78d6" stroke="none" stroke-width="2" stroke-linejoin="round" stroke-linecap="round" opacity="0.13"/>
<path d="M730.8,200.0 L731.6,200.7 L737.0,205.6 L742.3,213.7 L747.7,216.7 L753.0,224.8 L758.4,228.2 L763.7,230.1 L769.1,230.3 L774.5,228.9 L779.8,226.1 L785.2,221.1 L790.5,213.5 L795.9,202.3 L796.9,200.0 L796.9,200.0 L730.8,200.0 Z" fill="#e34948" stroke="none" stroke-width="2" stroke-linejoin="round" stroke-linecap="round" opacity="0.13"/>
<path d="M796.9,200.0 L801.2,190.5 L806.6,178.8 L811.9,169.3 L817.3,164.5 L822.6,158.2 L828.0,152.9 L828.0,200.0 L796.9,200.0 Z" fill="#2a78d6" stroke="none" stroke-width="2" stroke-linejoin="round" stroke-linecap="round" opacity="0.13"/>
<line x1="662" y1="200.0" x2="828" y2="200.0" stroke="#c8bca6" stroke-width="1"/>
<path d="M662.0,198.5 L667.4,197.5 L672.7,195.8 L678.1,193.9 L683.4,191.6 L688.8,189.6 L694.1,188.6 L699.5,187.8 L704.8,187.4 L710.2,188.1 L715.5,190.2 L720.9,193.0 L726.3,196.3 L731.6,200.7 L737.0,205.6 L742.3,213.7 L747.7,216.7 L753.0,224.8 L758.4,228.2 L763.7,230.1 L769.1,230.3 L774.5,228.9 L779.8,226.1 L785.2,221.1 L790.5,213.5 L795.9,202.3 L801.2,190.5 L806.6,178.8 L811.9,169.3 L817.3,164.5 L822.6,158.2 L828.0,152.9" fill="none" stroke="#2a2420" stroke-width="2.4" stroke-linejoin="round" stroke-linecap="round"/>
<text x="745.0" y="308" font-size="15" fill="#2a2420" text-anchor="middle" font-style="italic" font-family="Georgia, 'Times New Roman', serif">Cinderella</text>
<text x="745.0" y="330" font-size="12.5" fill="#8b7e6a" text-anchor="middle">16.2% of everything</text>
<rect x="858" y="116" width="190" height="234" rx="8" fill="#fdfcf8" stroke="#eae4d6" stroke-width="1"/>
<path d="M870.0,213.1 L875.4,212.1 L880.7,210.6 L886.1,210.8 L891.4,209.4 L896.8,207.1 L902.1,205.3 L907.5,203.1 L912.8,200.8 L914.2,200.0 L914.2,200.0 L870.0,200.0 Z" fill="#e34948" stroke="none" stroke-width="2" stroke-linejoin="round" stroke-linecap="round" opacity="0.13"/>
<path d="M914.2,200.0 L918.2,197.7 L923.5,194.4 L928.9,190.6 L934.3,187.4 L939.6,184.2 L945.0,181.1 L950.3,178.3 L955.7,176.6 L961.0,176.0 L966.4,175.8 L971.7,177.8 L977.1,183.8 L982.5,189.6 L987.8,197.0 L990.2,200.0 L990.2,200.0 L914.2,200.0 Z" fill="#2a78d6" stroke="none" stroke-width="2" stroke-linejoin="round" stroke-linecap="round" opacity="0.13"/>
<path d="M990.2,200.0 L993.2,203.8 L998.5,209.7 L1003.9,216.9 L1009.2,222.7 L1014.6,226.6 L1019.9,227.9 L1025.3,223.5 L1030.6,214.6 L1036.0,204.2 L1036.0,200.0 L990.2,200.0 Z" fill="#e34948" stroke="none" stroke-width="2" stroke-linejoin="round" stroke-linecap="round" opacity="0.13"/>
<line x1="870" y1="200.0" x2="1036" y2="200.0" stroke="#c8bca6" stroke-width="1"/>
<path d="M870.0,213.1 L875.4,212.1 L880.7,210.6 L886.1,210.8 L891.4,209.4 L896.8,207.1 L902.1,205.3 L907.5,203.1 L912.8,200.8 L918.2,197.7 L923.5,194.4 L928.9,190.6 L934.3,187.4 L939.6,184.2 L945.0,181.1 L950.3,178.3 L955.7,176.6 L961.0,176.0 L966.4,175.8 L971.7,177.8 L977.1,183.8 L982.5,189.6 L987.8,197.0 L993.2,203.8 L998.5,209.7 L1003.9,216.9 L1009.2,222.7 L1014.6,226.6 L1019.9,227.9 L1025.3,223.5 L1030.6,214.6 L1036.0,204.2" fill="none" stroke="#2a2420" stroke-width="2.4" stroke-linejoin="round" stroke-linecap="round"/>
<text x="953.0" y="308" font-size="15" fill="#2a2420" text-anchor="middle" font-style="italic" font-family="Georgia, 'Times New Roman', serif">Icarus, recovered</text>
<text x="953.0" y="330" font-size="12.5" fill="#8b7e6a" text-anchor="middle">13.2% of everything</text>
<rect x="1066" y="116" width="190" height="234" rx="8" fill="#fdfcf8" stroke="#eae4d6" stroke-width="1"/>
<path d="M1078.0,198.4 L1083.4,197.0 L1088.7,194.6 L1094.1,191.7 L1099.4,189.0 L1104.8,186.7 L1110.1,184.6 L1115.5,183.3 L1120.8,182.0 L1126.2,182.0 L1131.5,182.8 L1136.9,184.9 L1142.3,188.2 L1147.6,192.2 L1153.0,196.0 L1156.0,200.0 L1156.0,200.0 L1078.0,200.0 Z" fill="#2a78d6" stroke="none" stroke-width="2" stroke-linejoin="round" stroke-linecap="round" opacity="0.13"/>
<path d="M1156.0,200.0 L1158.3,203.0 L1163.7,206.2 L1169.0,215.4 L1174.4,221.4 L1179.7,227.5 L1185.1,233.6 L1190.5,238.1 L1195.8,243.0 L1201.2,246.4 L1206.5,249.5 L1211.9,252.9 L1217.2,255.1 L1222.6,256.8 L1227.9,257.7 L1233.3,255.4 L1238.6,250.8 L1244.0,245.7 L1244.0,200.0 L1156.0,200.0 Z" fill="#e34948" stroke="none" stroke-width="2" stroke-linejoin="round" stroke-linecap="round" opacity="0.13"/>
<line x1="1078" y1="200.0" x2="1244" y2="200.0" stroke="#c8bca6" stroke-width="1"/>
<path d="M1078.0,198.4 L1083.4,197.0 L1088.7,194.6 L1094.1,191.7 L1099.4,189.0 L1104.8,186.7 L1110.1,184.6 L1115.5,183.3 L1120.8,182.0 L1126.2,182.0 L1131.5,182.8 L1136.9,184.9 L1142.3,188.2 L1147.6,192.2 L1153.0,196.0 L1158.3,203.0 L1163.7,206.2 L1169.0,215.4 L1174.4,221.4 L1179.7,227.5 L1185.1,233.6 L1190.5,238.1 L1195.8,243.0 L1201.2,246.4 L1206.5,249.5 L1211.9,252.9 L1217.2,255.1 L1222.6,256.8 L1227.9,257.7 L1233.3,255.4 L1238.6,250.8 L1244.0,245.7" fill="none" stroke="#2a2420" stroke-width="2.4" stroke-linejoin="round" stroke-linecap="round"/>
<text x="1161.0" y="308" font-size="15" fill="#2a2420" text-anchor="middle" font-style="italic" font-family="Georgia, 'Times New Roman', serif">Icarus, not</text>
<text x="1161.0" y="330" font-size="12.5" fill="#8b7e6a" text-anchor="middle">10.2% of everything</text>
<rect x="1274" y="116" width="190" height="234" rx="8" fill="#fdfcf8" stroke="#eae4d6" stroke-width="1"/>
<path d="M1286.0,215.9 L1291.4,216.1 L1296.7,216.7 L1302.1,219.8 L1307.4,223.3 L1312.8,226.1 L1318.1,228.7 L1323.5,230.6 L1328.8,233.0 L1334.2,236.0 L1339.5,239.2 L1344.9,241.5 L1350.3,243.3 L1355.6,245.4 L1361.0,247.0 L1366.3,249.4 L1371.7,250.1 L1377.0,252.2 L1382.4,253.7 L1387.7,254.8 L1393.1,256.5 L1398.5,258.0 L1403.8,260.0 L1409.2,260.9 L1414.5,262.2 L1419.9,264.0 L1425.2,265.3 L1430.6,265.8 L1435.9,265.7 L1441.3,263.2 L1446.6,258.8 L1452.0,253.9 L1452.0,200.0 L1286.0,200.0 Z" fill="#e34948" stroke="none" stroke-width="2" stroke-linejoin="round" stroke-linecap="round" opacity="0.13"/>
<line x1="1286" y1="200.0" x2="1452" y2="200.0" stroke="#c8bca6" stroke-width="1"/>
<path d="M1286.0,215.9 L1291.4,216.1 L1296.7,216.7 L1302.1,219.8 L1307.4,223.3 L1312.8,226.1 L1318.1,228.7 L1323.5,230.6 L1328.8,233.0 L1334.2,236.0 L1339.5,239.2 L1344.9,241.5 L1350.3,243.3 L1355.6,245.4 L1361.0,247.0 L1366.3,249.4 L1371.7,250.1 L1377.0,252.2 L1382.4,253.7 L1387.7,254.8 L1393.1,256.5 L1398.5,258.0 L1403.8,260.0 L1409.2,260.9 L1414.5,262.2 L1419.9,264.0 L1425.2,265.3 L1430.6,265.8 L1435.9,265.7 L1441.3,263.2 L1446.6,258.8 L1452.0,253.9" fill="none" stroke="#2a2420" stroke-width="2.4" stroke-linejoin="round" stroke-linecap="round"/>
<text x="1369.0" y="308" font-size="15" fill="#2a2420" text-anchor="middle" font-style="italic" font-family="Georgia, 'Times New Roman', serif">The Downfall</text>
<text x="1369.0" y="330" font-size="12.5" fill="#8b7e6a" text-anchor="middle">11.8% of everything</text>
</svg>
