<svg xmlns="http://www.w3.org/2000/svg" viewBox="0 0 1000 560" font-family="-apple-system, 'Segoe UI', Roboto, Helvetica, Arial, sans-serif">
<rect x="0" y="0" width="1000" height="560" rx="10" fill="#fdfcf8"/>
<rect x="0.5" y="0.5" width="999" height="559" rx="10" fill="none" stroke="#eae4d6"/>
<text x="28" y="40" font-size="13" fill="#8b7e6a" text-anchor="start" font-weight="700" letter-spacing="0.12em">THE AVERAGE OF EVERYTHING</text>
<text x="28" y="64" font-size="16" fill="#5c5145" text-anchor="start">Mean charted fortune across all 11,027 books, beginning to end</text>
<text x="28" y="86" font-size="13.5" fill="#8b7e6a" text-anchor="start">G–I is good-to-ill fortune, B–E is beginning-to-end</text>
<line x1="90" y1="480.0" x2="940" y2="480.0" stroke="#eae4d6" stroke-width="1"/>
<text x="78" y="485.0" font-size="13" fill="#8b7e6a" text-anchor="end">-40</text>
<line x1="90" y1="390.0" x2="940" y2="390.0" stroke="#eae4d6" stroke-width="1"/>
<text x="78" y="395.0" font-size="13" fill="#8b7e6a" text-anchor="end">-20</text>
<line x1="90" y1="210.0" x2="940" y2="210.0" stroke="#eae4d6" stroke-width="1"/>
<text x="78" y="215.0" font-size="13" fill="#8b7e6a" text-anchor="end">+20</text>
<line x1="90" y1="120.0" x2="940" y2="120.0" stroke="#eae4d6" stroke-width="1"/>
<text x="78" y="125.0" font-size="13" fill="#8b7e6a" text-anchor="end">+40</text>
<text x="78" y="305.0" font-size="13" fill="#8b7e6a" text-anchor="end">0</text>
<path d="M90.0,336.9 L117.4,334.6 L144.8,331.5 L172.3,337.4 L199.7,340.9 L227.1,342.3 L254.5,344.6 L281.9,345.0 L309.4,346.4 L336.8,349.1 L364.2,351.8 L391.6,353.6 L419.0,356.7 L446.5,360.8 L473.9,363.0 L501.3,370.2 L528.7,370.2 L556.1,377.4 L583.5,378.3 L611.0,378.8 L638.4,380.1 L665.8,378.8 L693.2,376.9 L720.6,371.6 L748.1,362.6 L775.5,349.9 L802.9,333.8 L830.3,314.4 L851.2,300.0 L851.2,300.0 L90.0,300.0 Z" fill="#e34948" stroke="none" stroke-width="2" stroke-linejoin="round" stroke-linecap="round" opacity="0.13"/>
<path d="M851.2,300.0 L857.7,295.5 L885.2,277.5 L912.6,250.9 L940.0,226.7 L940.0,300.0 L851.2,300.0 Z" fill="#2a78d6" stroke="none" stroke-width="2" stroke-linejoin="round" stroke-linecap="round" opacity="0.13"/>
<line x1="90" y1="300.0" x2="940" y2="300.0" stroke="#c8bca6" stroke-width="1"/>
<path d="M90.0,336.9 L117.4,334.6 L144.8,331.5 L172.3,337.4 L199.7,340.9 L227.1,342.3 L254.5,344.6 L281.9,345.0 L309.4,346.4 L336.8,349.1 L364.2,351.8 L391.6,353.6 L419.0,356.7 L446.5,360.8 L473.9,363.0 L501.3,370.2 L528.7,370.2 L556.1,377.4 L583.5,378.3 L611.0,378.8 L638.4,380.1 L665.8,378.8 L693.2,376.9 L720.6,371.6 L748.1,362.6 L775.5,349.9 L802.9,333.8 L830.3,314.4 L857.7,295.5 L885.2,277.5 L912.6,250.9 L940.0,226.7" fill="none" stroke="#2a2420" stroke-width="3" stroke-linejoin="round" stroke-linecap="round"/>
<text x="38" y="134" font-size="20" fill="#5c5145" text-anchor="middle" font-style="italic" font-family="Georgia, 'Times New Roman', serif">G</text>
<text x="38" y="484" font-size="20" fill="#5c5145" text-anchor="middle" font-style="italic" font-family="Georgia, 'Times New Roman', serif">I</text>
<line x1="38" y1="146" x2="38" y2="458" stroke="#c8bca6" stroke-width="1.5"/>
<text x="90" y="520" font-size="20" fill="#5c5145" text-anchor="middle" font-style="italic" font-family="Georgia, 'Times New Roman', serif">B</text>
<text x="940" y="520" font-size="20" fill="#5c5145" text-anchor="middle" font-style="italic" font-family="Georgia, 'Times New Roman', serif">E</text>
<line x1="108" y1="514" x2="922" y2="514" stroke="#c8bca6" stroke-width="1.5"/>
<text x="515.0" y="536" font-size="13.5" fill="#8b7e6a" text-anchor="middle">beginning of the story → end of the story</text>
<circle cx="90.0" cy="336.9" r="6.5" fill="#fdfcf8"/>
<circle cx="90.0" cy="336.9" r="4.5" fill="#e34948"/>
<text x="104.0" y="324.9" font-size="15" fill="#2a2420" text-anchor="start" font-weight="700">opens at −8.2</text>
<circle cx="638.3870967741935" cy="380.1" r="6.5" fill="#fdfcf8"/>
<circle cx="638.3870967741935" cy="380.1" r="4.5" fill="#e34948"/>
<text x="638.3870967741935" y="410.1" font-size="15" fill="#2a2420" text-anchor="middle" font-weight="700">bottom of the hole: −17.8,</text>
<text x="638.3870967741935" y="429.1" font-size="13.5" fill="#5c5145" text-anchor="middle">61% of the way through</text>
<circle cx="940.0" cy="226.65" r="6.5" fill="#fdfcf8"/>
<circle cx="940.0" cy="226.65" r="4.5" fill="#2a78d6"/>
<text x="928.0" y="212.65" font-size="15" fill="#2a2420" text-anchor="end" font-weight="700">ends at +16.3</text>
</svg>
