<svg xmlns="http://www.w3.org/2000/svg" viewBox="0 0 1000 600" font-family="-apple-system, 'Segoe UI', Roboto, Helvetica, Arial, sans-serif">
<rect x="0" y="0" width="1000" height="600" rx="10" fill="#fdfcf8"/>
<rect x="0.5" y="0.5" width="999" height="599" rx="10" fill="none" stroke="#eae4d6"/>
<text x="28" y="40" font-size="13" fill="#8b7e6a" text-anchor="start" font-weight="700" letter-spacing="0.12em">SEVEN FAMILIES, FOUND BY K-MEANS</text>
<text x="28" y="64" font-size="16" fill="#5c5145" text-anchor="start">Cluster mean curves. Every panel shares the same scale (−80 … +70)</text>
<rect x="28" y="92" width="226" height="220" rx="8" fill="#fdfcf8" stroke="#eae4d6" stroke-width="1"/>
<text x="42" y="118" font-size="15.5" fill="#2a2420" text-anchor="start" font-weight="700">Rags to Riches</text>
<text x="42" y="137" font-size="12.5" fill="#8b7e6a" text-anchor="start">1,335 books · 12.1%</text>
<path d="M42.0,211.6 L48.4,210.8 L54.8,209.7 L61.2,208.6 L67.5,206.8 L70.1,206.0 L70.1,206.0 L42.0,206.0 Z" fill="#e34948" stroke="none" stroke-width="2" stroke-linejoin="round" stroke-linecap="round" opacity="0.13"/>
<path d="M70.1,206.0 L73.9,204.8 L80.3,203.2 L86.7,201.7 L93.1,200.2 L99.5,198.6 L105.9,196.5 L112.3,194.8 L118.6,193.4 L125.0,191.8 L131.4,189.8 L137.8,188.2 L144.2,186.7 L150.6,185.4 L157.0,183.9 L163.4,182.8 L169.7,181.2 L176.1,179.5 L182.5,178.2 L188.9,176.7 L195.3,174.9 L201.7,172.7 L208.1,169.7 L214.5,166.7 L220.8,164.5 L227.2,162.6 L233.6,161.0 L240.0,160.6 L240.0,206.0 L70.1,206.0 Z" fill="#2a78d6" stroke="none" stroke-width="2" stroke-linejoin="round" stroke-linecap="round" opacity="0.13"/>
<line x1="42" y1="206.0" x2="240" y2="206.0" stroke="#c8bca6" stroke-width="1"/>
<path d="M42.0,211.6 L48.4,210.8 L54.8,209.7 L61.2,208.6 L67.5,206.8 L73.9,204.8 L80.3,203.2 L86.7,201.7 L93.1,200.2 L99.5,198.6 L105.9,196.5 L112.3,194.8 L118.6,193.4 L125.0,191.8 L131.4,189.8 L137.8,188.2 L144.2,186.7 L150.6,185.4 L157.0,183.9 L163.4,182.8 L169.7,181.2 L176.1,179.5 L182.5,178.2 L188.9,176.7 L195.3,174.9 L201.7,172.7 L208.1,169.7 L214.5,166.7 L220.8,164.5 L227.2,162.6 L233.6,161.0 L240.0,160.6" fill="none" stroke="#2a2420" stroke-width="2.2" stroke-linejoin="round" stroke-linecap="round"/>
<text x="42" y="298" font-size="12" fill="#8b3a3a" text-anchor="start" font-weight="700">model calls it: man_in_a_hole</text>
<rect x="270" y="92" width="226" height="220" rx="8" fill="#fdfcf8" stroke="#eae4d6" stroke-width="1"/>
<text x="284" y="118" font-size="15.5" fill="#2a2420" text-anchor="start" font-weight="700">Man in a Hole</text>
<text x="284" y="137" font-size="12.5" fill="#8b7e6a" text-anchor="start">1,853 books · 16.8%</text>
<path d="M284.0,217.0 L290.4,216.9 L296.8,216.8 L303.2,220.3 L309.5,223.8 L315.9,226.5 L322.3,228.8 L328.7,230.1 L335.1,231.2 L341.5,232.3 L347.9,232.5 L354.3,232.0 L360.6,231.4 L367.0,230.4 L373.4,228.7 L379.8,226.2 L386.2,223.8 L392.6,219.8 L399.0,215.8 L405.4,211.4 L411.7,206.7 L412.8,206.0 L412.8,206.0 L284.0,206.0 Z" fill="#e34948" stroke="none" stroke-width="2" stroke-linejoin="round" stroke-linecap="round" opacity="0.13"/>
<path d="M412.8,206.0 L418.1,202.3 L424.5,197.4 L430.9,193.1 L437.3,189.1 L443.7,184.4 L450.1,180.6 L456.5,177.0 L462.8,174.2 L469.2,171.7 L475.6,168.4 L482.0,165.6 L482.0,206.0 L412.8,206.0 Z" fill="#2a78d6" stroke="none" stroke-width="2" stroke-linejoin="round" stroke-linecap="round" opacity="0.13"/>
<line x1="284" y1="206.0" x2="482" y2="206.0" stroke="#c8bca6" stroke-width="1"/>
<path d="M284.0,217.0 L290.4,216.9 L296.8,216.8 L303.2,220.3 L309.5,223.8 L315.9,226.5 L322.3,228.8 L328.7,230.1 L335.1,231.2 L341.5,232.3 L347.9,232.5 L354.3,232.0 L360.6,231.4 L367.0,230.4 L373.4,228.7 L379.8,226.2 L386.2,223.8 L392.6,219.8 L399.0,215.8 L405.4,211.4 L411.7,206.7 L418.1,202.3 L424.5,197.4 L430.9,193.1 L437.3,189.1 L443.7,184.4 L450.1,180.6 L456.5,177.0 L462.8,174.2 L469.2,171.7 L475.6,168.4 L482.0,165.6" fill="none" stroke="#2a2420" stroke-width="2.2" stroke-linejoin="round" stroke-linecap="round"/>
<text x="284" y="298" font-size="12" fill="#8b3a3a" text-anchor="start" font-weight="700">model calls it: man_in_a_hole</text>
<rect x="512" y="92" width="226" height="220" rx="8" fill="#fdfcf8" stroke="#eae4d6" stroke-width="1"/>
<text x="526" y="118" font-size="15.5" fill="#2a2420" text-anchor="start" font-weight="700">Man in a Deep Hole</text>
<text x="526" y="137" font-size="12.5" fill="#8b7e6a" text-anchor="start">2,174 books · 19.7%</text>
<path d="M526.0,213.6 L532.4,213.6 L538.8,214.2 L545.2,218.0 L551.5,221.2 L557.9,223.4 L564.3,225.6 L570.7,227.4 L577.1,229.5 L583.5,231.6 L589.9,233.7 L596.3,235.3 L602.6,236.6 L609.0,238.2 L615.4,239.2 L621.8,240.8 L628.2,241.0 L634.6,242.2 L641.0,241.8 L647.4,241.3 L653.7,240.7 L660.1,239.4 L666.5,237.7 L672.9,235.2 L679.3,231.7 L685.7,227.0 L692.1,220.4 L698.5,212.5 L703.6,206.0 L703.6,206.0 L526.0,206.0 Z" fill="#e34948" stroke="none" stroke-width="2" stroke-linejoin="round" stroke-linecap="round" opacity="0.13"/>
<path d="M703.6,206.0 L704.8,204.4 L711.2,199.4 L717.6,192.2 L724.0,186.2 L724.0,206.0 L703.6,206.0 Z" fill="#2a78d6" stroke="none" stroke-width="2" stroke-linejoin="round" stroke-linecap="round" opacity="0.13"/>
<line x1="526" y1="206.0" x2="724" y2="206.0" stroke="#c8bca6" stroke-width="1"/>
<path d="M526.0,213.6 L532.4,213.6 L538.8,214.2 L545.2,218.0 L551.5,221.2 L557.9,223.4 L564.3,225.6 L570.7,227.4 L577.1,229.5 L583.5,231.6 L589.9,233.7 L596.3,235.3 L602.6,236.6 L609.0,238.2 L615.4,239.2 L621.8,240.8 L628.2,241.0 L634.6,242.2 L641.0,241.8 L647.4,241.3 L653.7,240.7 L660.1,239.4 L666.5,237.7 L672.9,235.2 L679.3,231.7 L685.7,227.0 L692.1,220.4 L698.5,212.5 L704.8,204.4 L711.2,199.4 L717.6,192.2 L724.0,186.2" fill="none" stroke="#2a2420" stroke-width="2.2" stroke-linejoin="round" stroke-linecap="round"/>
<text x="526" y="298" font-size="12" fill="#8b3a3a" text-anchor="start" font-weight="700">model calls it: man_in_a_hole</text>
<rect x="754" y="92" width="226" height="220" rx="8" fill="#fdfcf8" stroke="#eae4d6" stroke-width="1"/>
<text x="768" y="118" font-size="15.5" fill="#2a2420" text-anchor="start" font-weight="700">Cinderella</text>
<text x="768" y="137" font-size="12.5" fill="#8b7e6a" text-anchor="start">1,786 books · 16.2%</text>
<path d="M768.0,204.8 L774.4,204.0 L780.8,202.6 L787.2,201.1 L793.5,199.3 L799.9,197.7 L806.3,196.9 L812.7,196.2 L819.1,195.9 L825.5,196.5 L831.9,198.2 L838.3,200.4 L844.6,203.0 L850.0,206.0 L850.0,206.0 L768.0,206.0 Z" fill="#2a78d6" stroke="none" stroke-width="2" stroke-linejoin="round" stroke-linecap="round" opacity="0.13"/>
<path d="M850.0,206.0 L851.0,206.6 L857.4,210.5 L863.8,217.0 L870.2,219.4 L876.6,225.8 L883.0,228.6 L889.4,230.1 L895.7,230.2 L902.1,229.1 L908.5,226.9 L914.9,222.9 L921.3,216.8 L927.7,207.8 L928.9,206.0 L928.9,206.0 L850.0,206.0 Z" fill="#e34948" stroke="none" stroke-width="2" stroke-linejoin="round" stroke-linecap="round" opacity="0.13"/>
<path d="M928.9,206.0 L934.1,198.4 L940.5,189.0 L946.8,181.4 L953.2,177.6 L959.6,172.6 L966.0,168.3 L966.0,206.0 L928.9,206.0 Z" fill="#2a78d6" stroke="none" stroke-width="2" stroke-linejoin="round" stroke-linecap="round" opacity="0.13"/>
<line x1="768" y1="206.0" x2="966" y2="206.0" stroke="#c8bca6" stroke-width="1"/>
<path d="M768.0,204.8 L774.4,204.0 L780.8,202.6 L787.2,201.1 L793.5,199.3 L799.9,197.7 L806.3,196.9 L812.7,196.2 L819.1,195.9 L825.5,196.5 L831.9,198.2 L838.3,200.4 L844.6,203.0 L851.0,206.6 L857.4,210.5 L863.8,217.0 L870.2,219.4 L876.6,225.8 L883.0,228.6 L889.4,230.1 L895.7,230.2 L902.1,229.1 L908.5,226.9 L914.9,222.9 L921.3,216.8 L927.7,207.8 L934.1,198.4 L940.5,189.0 L946.8,181.4 L953.2,177.6 L959.6,172.6 L966.0,168.3" fill="none" stroke="#2a2420" stroke-width="2.2" stroke-linejoin="round" stroke-linecap="round"/>
<text x="768" y="298" font-size="12" fill="#8b3a3a" text-anchor="start" font-weight="700">model calls it: man_in_a_hole</text>
<rect x="28" y="334" width="226" height="220" rx="8" fill="#fdfcf8" stroke="#eae4d6" stroke-width="1"/>
<text x="42" y="360" font-size="15.5" fill="#2a2420" text-anchor="start" font-weight="700">Icarus (partial recovery)</text>
<text x="42" y="379" font-size="12.5" fill="#8b7e6a" text-anchor="start">1,459 books · 13.2%</text>
<path d="M42.0,458.5 L48.4,457.7 L54.8,456.5 L61.2,456.6 L67.5,455.5 L73.9,453.7 L80.3,452.2 L86.7,450.5 L93.1,448.6 L94.7,448.0 L94.7,448.0 L42.0,448.0 Z" fill="#e34948" stroke="none" stroke-width="2" stroke-linejoin="round" stroke-linecap="round" opacity="0.13"/>
<path d="M94.7,448.0 L99.5,446.2 L105.9,443.5 L112.3,440.5 L118.6,437.9 L125.0,435.4 L131.4,432.9 L137.8,430.6 L144.2,429.3 L150.6,428.8 L157.0,428.6 L163.4,430.2 L169.7,435.0 L176.1,439.7 L182.5,445.6 L185.3,448.0 L185.3,448.0 L94.7,448.0 Z" fill="#2a78d6" stroke="none" stroke-width="2" stroke-linejoin="round" stroke-linecap="round" opacity="0.13"/>
<path d="M185.3,448.0 L188.9,451.0 L195.3,455.8 L201.7,461.5 L208.1,466.2 L214.5,469.3 L220.8,470.3 L227.2,466.8 L233.6,459.7 L240.0,451.4 L240.0,448.0 L185.3,448.0 Z" fill="#e34948" stroke="none" stroke-width="2" stroke-linejoin="round" stroke-linecap="round" opacity="0.13"/>
<line x1="42" y1="448.0" x2="240" y2="448.0" stroke="#c8bca6" stroke-width="1"/>
<path d="M42.0,458.5 L48.4,457.7 L54.8,456.5 L61.2,456.6 L67.5,455.5 L73.9,453.7 L80.3,452.2 L86.7,450.5 L93.1,448.6 L99.5,446.2 L105.9,443.5 L112.3,440.5 L118.6,437.9 L125.0,435.4 L131.4,432.9 L137.8,430.6 L144.2,429.3 L150.6,428.8 L157.0,428.6 L163.4,430.2 L169.7,435.0 L176.1,439.7 L182.5,445.6 L188.9,451.0 L195.3,455.8 L201.7,461.5 L208.1,466.2 L214.5,469.3 L220.8,470.3 L227.2,466.8 L233.6,459.7 L240.0,451.4" fill="none" stroke="#2a2420" stroke-width="2.2" stroke-linejoin="round" stroke-linecap="round"/>
<text x="42" y="540" font-size="12" fill="#8b7e6a" text-anchor="start">model calls it: icarus</text>
<rect x="270" y="334" width="226" height="220" rx="8" fill="#fdfcf8" stroke="#eae4d6" stroke-width="1"/>
<text x="284" y="360" font-size="15.5" fill="#2a2420" text-anchor="start" font-weight="700">Icarus (no recovery)</text>
<text x="284" y="379" font-size="12.5" fill="#8b7e6a" text-anchor="start">1,124 books · 10.2%</text>
<path d="M284.0,446.7 L290.4,445.6 L296.8,443.7 L303.2,441.4 L309.5,439.2 L315.9,437.4 L322.3,435.7 L328.7,434.6 L335.1,433.6 L341.5,433.6 L347.9,434.2 L354.3,435.9 L360.6,438.6 L367.0,441.8 L373.4,444.8 L377.1,448.0 L377.1,448.0 L284.0,448.0 Z" fill="#2a78d6" stroke="none" stroke-width="2" stroke-linejoin="round" stroke-linecap="round" opacity="0.13"/>
<path d="M377.1,448.0 L379.8,450.4 L386.2,453.0 L392.6,460.3 L399.0,465.1 L405.4,470.0 L411.7,474.9 L418.1,478.5 L424.5,482.4 L430.9,485.1 L437.3,487.6 L443.7,490.3 L450.1,492.1 L456.5,493.4 L462.8,494.2 L469.2,492.3 L475.6,488.6 L482.0,484.6 L482.0,448.0 L377.1,448.0 Z" fill="#e34948" stroke="none" stroke-width="2" stroke-linejoin="round" stroke-linecap="round" opacity="0.13"/>
<line x1="284" y1="448.0" x2="482" y2="448.0" stroke="#c8bca6" stroke-width="1"/>
<path d="M284.0,446.7 L290.4,445.6 L296.8,443.7 L303.2,441.4 L309.5,439.2 L315.9,437.4 L322.3,435.7 L328.7,434.6 L335.1,433.6 L341.5,433.6 L347.9,434.2 L354.3,435.9 L360.6,438.6 L367.0,441.8 L373.4,444.8 L379.8,450.4 L386.2,453.0 L392.6,460.3 L399.0,465.1 L405.4,470.0 L411.7,474.9 L418.1,478.5 L424.5,482.4 L430.9,485.1 L437.3,487.6 L443.7,490.3 L450.1,492.1 L456.5,493.4 L462.8,494.2 L469.2,492.3 L475.6,488.6 L482.0,484.6" fill="none" stroke="#2a2420" stroke-width="2.2" stroke-linejoin="round" stroke-linecap="round"/>
<text x="284" y="540" font-size="12" fill="#8b7e6a" text-anchor="start">model calls it: icarus</text>
<rect x="512" y="334" width="226" height="220" rx="8" fill="#fdfcf8" stroke="#eae4d6" stroke-width="1"/>
<text x="526" y="360" font-size="15.5" fill="#2a2420" text-anchor="start" font-weight="700">The Downfall</text>
<text x="526" y="379" font-size="12.5" fill="#8b7e6a" text-anchor="start">1,296 books · 11.8%</text>
<path d="M526.0,460.7 L532.4,460.9 L538.8,461.4 L545.2,463.8 L551.5,466.6 L557.9,468.9 L564.3,471.0 L570.7,472.5 L577.1,474.4 L583.5,476.8 L589.9,479.4 L596.3,481.2 L602.6,482.6 L609.0,484.3 L615.4,485.6 L621.8,487.5 L628.2,488.1 L634.6,489.8 L641.0,491.0 L647.4,491.8 L653.7,493.2 L660.1,494.4 L666.5,496.0 L672.9,496.7 L679.3,497.8 L685.7,499.2 L692.1,500.2 L698.5,500.6 L704.8,500.6 L711.2,498.6 L717.6,495.0 L724.0,491.1 L724.0,448.0 L526.0,448.0 Z" fill="#e34948" stroke="none" stroke-width="2" stroke-linejoin="round" stroke-linecap="round" opacity="0.13"/>
<line x1="526" y1="448.0" x2="724" y2="448.0" stroke="#c8bca6" stroke-width="1"/>
<path d="M526.0,460.7 L532.4,460.9 L538.8,461.4 L545.2,463.8 L551.5,466.6 L557.9,468.9 L564.3,471.0 L570.7,472.5 L577.1,474.4 L583.5,476.8 L589.9,479.4 L596.3,481.2 L602.6,482.6 L609.0,484.3 L615.4,485.6 L621.8,487.5 L628.2,488.1 L634.6,489.8 L641.0,491.0 L647.4,491.8 L653.7,493.2 L660.1,494.4 L666.5,496.0 L672.9,496.7 L679.3,497.8 L685.7,499.2 L692.1,500.2 L698.5,500.6 L704.8,500.6 L711.2,498.6 L717.6,495.0 L724.0,491.1" fill="none" stroke="#2a2420" stroke-width="2.2" stroke-linejoin="round" stroke-linecap="round"/>
<text x="526" y="540" font-size="12" fill="#8b7e6a" text-anchor="start">model calls it: slow_unraveling</text>
<text x="768" y="370" font-size="14.5" fill="#5c5145" text-anchor="start" font-weight="700">How to read these</text>
<rect x="768" y="386" width="26" height="13" rx="2" fill="#2a78d6"/>
<rect x="768" y="386" width="26" height="13" rx="2" fill="#fdfcf8" opacity="0.87"/>
<text x="802" y="397" font-size="12.5" fill="#5c5145" text-anchor="start">good fortune (above the line)</text>
<rect x="768" y="408" width="26" height="13" rx="2" fill="#e34948"/>
<rect x="768" y="408" width="26" height="13" rx="2" fill="#fdfcf8" opacity="0.87"/>
<text x="802" y="419" font-size="12.5" fill="#5c5145" text-anchor="start">ill fortune (below it)</text>
<text x="768" y="450" font-size="12.5" fill="#8b7e6a" text-anchor="start">model calls it: the most common</text>
<text x="768" y="467" font-size="12.5" fill="#8b7e6a" text-anchor="start">label the charting model wrote,</text>
<text x="768" y="484" font-size="12.5" fill="#8b7e6a" text-anchor="start">unprompted, for books in that</text>
<text x="768" y="501" font-size="12.5" fill="#8b7e6a" text-anchor="start">cluster. Note how often it is the</text>
<text x="768" y="518" font-size="12.5" fill="#8b7e6a" text-anchor="start">same label.</text>
</svg>
